<svg width="373" height="127" viewBox="0 0 373 127" fill="none" xmlns="http://www.w3.org/2000/svg">
<path d="M16.6787 66.4072C16.6787 40.3859 37.5364 10.7268 75.499 13.1689C95.8485 14.4771 104.64 24.6916 108.38 38.4893C104.487 41.0891 98.0426 45.4892 98.5557 45.5508C99.1032 45.6165 101.872 45.9618 103.188 46.126C96.3826 65.2332 78.9329 70.4481 71.0586 70.667C81.0241 69.1568 91.9717 59.86 96.2002 55.4004H92.707L91.7188 55.9746C90.6299 53.8404 88.2702 49.1128 87.541 47.2744C86.8116 45.4361 84.3003 44.2648 83.1357 43.9092H50.2461C48.3623 44.2375 46.8276 45.7428 46.2959 46.4541L41.5869 56.5498L40.6758 55.5645H35.4346C34.8269 55.5645 34.2699 56.4949 34.0674 56.96C34.0167 57.2336 33.9459 58.1745 34.0674 59.75C34.1889 61.3258 37.4087 61.7206 39.0039 61.7207C37.1204 63.6247 36.3453 65.195 36.1934 65.7422V79.5312C36.1936 80.5816 38.067 81.6647 39.0039 82.0752H39.1123C38.6819 82.8436 38.4355 83.7295 38.4355 84.6729C38.4358 87.6125 40.8191 89.9951 43.7588 89.9951H45.4111C48.3509 89.9951 50.7341 87.6125 50.7344 84.6729C50.7344 83.4097 50.2936 82.2496 49.5586 81.3369H65.5137L63.9189 87L67.4121 81.3369H84.3223C83.587 82.2497 83.1455 83.4095 83.1455 84.6729C83.1456 87.6126 85.529 89.996 88.4688 89.9961H90.1221C93.0617 89.9958 95.4443 87.6125 95.4443 84.6729C95.4443 83.4096 95.0037 82.2497 94.2686 81.3369H95.3652C96.7626 81.3368 97.213 80.2972 97.2637 79.7773C97.3649 74.6612 97.5067 64.577 97.2637 65.168C97.0192 65.7592 94.1247 67.2195 92.707 67.876C93.497 71.4217 92.3771 72.8553 91.7188 73.1289H83.1357C82.1636 73.1289 82.3766 72.6915 82.6045 72.4727V69.9277C96.8236 67.1041 105.746 54.6888 108.43 48.834L110.438 50.4033C110.934 55.5635 111.061 60.9655 111.061 66.4072C111.06 92.4284 80.2331 113.973 54.792 113.973C29.3508 113.973 12.3275 92.992 16.6787 66.4072ZM70.4512 47.9316L66.2734 56.96L73.2617 47.9316H82.6045C83.394 47.9318 83.9457 48.533 84.123 48.834L89.2129 59.75H72.6533L66.2734 70.667L70.4512 74.1963L66.2734 81.3369L68.1719 75.4268L61.8672 70.667L71.0586 59.75H44.3975C45.6635 57.0414 48.3319 51.2804 48.8789 49.9014C49.4256 48.523 50.372 48.014 50.7773 47.9316H70.4512ZM41.5869 66.8916C43.2395 65.9988 46.1156 67.3467 48.7461 68.5801C49.2591 68.8206 49.7627 69.0572 50.2461 69.2715C51.0563 70.2017 52.0384 72.2753 49.4863 73.1289C46.9342 73.9825 43.1567 73.4846 41.5869 73.1289C40.6501 72.5544 39.0806 70.1746 41.5869 66.8916Z" fill="#00D084"/>
<path d="M141.848 103.077C135.833 103.077 130.869 101.839 126.958 99.3637C123.072 96.8883 120.337 93.4352 118.752 89.0043C117.168 84.5733 116.859 79.4245 117.824 73.5579C118.79 67.716 120.782 62.592 123.802 58.1858C126.822 53.7796 130.684 50.3512 135.387 47.9006C140.09 45.45 145.425 44.2247 151.39 44.2247C157.381 44.2247 162.319 45.4623 166.205 47.9377C170.117 50.4131 172.864 53.8663 174.448 58.2972C176.057 62.7281 176.379 67.8893 175.414 73.7807C174.448 79.6226 172.443 84.7466 169.399 89.1528C166.354 93.5342 162.492 96.9502 157.814 99.4009C153.135 101.851 147.813 103.077 141.848 103.077ZM143.89 89.3756C146.118 89.3756 148.11 88.7072 149.868 87.3705C151.65 86.0338 153.148 84.1649 154.361 81.7638C155.574 79.3627 156.44 76.5779 156.96 73.4094C157.48 70.2904 157.529 67.5551 157.108 65.2035C156.712 62.8271 155.871 60.983 154.584 59.671C153.296 58.3343 151.551 57.666 149.348 57.666C147.12 57.666 145.115 58.3467 143.333 59.7082C141.551 61.0449 140.053 62.9138 138.84 65.3149C137.652 67.6912 136.798 70.4761 136.278 73.6693C135.758 76.7883 135.696 79.5236 136.092 81.8752C136.489 84.2268 137.343 86.0709 138.655 87.4076C139.966 88.7196 141.712 89.3756 143.89 89.3756ZM236.253 62.3816L219.878 62.8271C219.903 61.6142 219.63 60.5498 219.061 59.6339C218.492 58.6932 217.687 57.963 216.648 57.4432C215.608 56.9234 214.37 56.6634 212.934 56.6634C210.608 56.6634 208.516 57.1833 206.659 58.2229C204.828 59.2626 203.8 60.6117 203.578 62.2702C203.404 63.1613 203.652 63.9411 204.32 64.6094C204.988 65.253 206.474 65.8223 208.776 66.3174L219.469 68.3967C224.965 69.4859 228.95 71.3796 231.426 74.0777C233.926 76.7511 234.817 80.2909 234.099 84.6971C233.455 88.4597 231.797 91.7148 229.123 94.4625C226.475 97.2101 223.096 99.339 218.987 100.849C214.902 102.334 210.385 103.077 205.434 103.077C197.067 103.077 190.755 101.394 186.497 98.027C182.264 94.6357 180.284 90.1429 180.556 84.5486L198.231 84.103C198.305 86.2071 199.01 87.7913 200.347 88.8557C201.709 89.8954 203.553 90.44 205.88 90.4895C208.429 90.539 210.632 90.0068 212.489 88.8929C214.345 87.7789 215.385 86.4051 215.608 84.7714C215.756 83.707 215.397 82.8777 214.531 82.2836C213.689 81.6895 212.118 81.1573 209.815 80.687L200.161 78.7933C194.617 77.7289 190.607 75.7239 188.131 72.7782C185.681 69.8077 184.839 66.0204 185.606 61.4162C186.25 57.7526 187.76 54.646 190.136 52.0964C192.537 49.522 195.669 47.5664 199.53 46.2297C203.417 44.893 207.848 44.2247 212.823 44.2247C220.794 44.2247 226.809 45.846 230.869 49.0888C234.953 52.3068 236.748 56.7377 236.253 62.3816ZM281.84 44.9673L279.575 58.3343H243.595L245.86 44.9673H281.84ZM255.625 31.3032H273.782L265.019 84.0659C264.846 85.1798 264.871 86.0833 265.094 86.7764C265.341 87.4448 265.787 87.9275 266.43 88.2245C267.099 88.4968 267.916 88.633 268.881 88.633C269.549 88.633 270.292 88.5587 271.109 88.4102C271.926 88.2616 272.545 88.1503 272.965 88.076L273.56 101.183C272.594 101.455 271.295 101.765 269.661 102.111C268.052 102.483 266.171 102.718 264.017 102.817C259.66 102.99 256.059 102.483 253.212 101.295C250.39 100.082 248.397 98.2003 247.234 95.6507C246.095 93.101 245.872 89.9078 246.566 86.0709L255.625 31.3032ZM297.527 102.965C293.913 102.965 290.794 102.359 288.17 101.146C285.571 99.9083 283.665 98.0394 282.452 95.5393C281.264 93.0391 280.98 89.9202 281.598 86.1823C282.143 83.0138 283.145 80.3528 284.606 78.1992C286.091 76.0209 287.911 74.251 290.064 72.8895C292.242 71.5281 294.668 70.4884 297.342 69.7706C300.015 69.0527 302.812 68.57 305.733 68.3225C309.001 68.0254 311.649 67.7036 313.679 67.3571C315.734 67.0105 317.269 66.5278 318.283 65.909C319.298 65.2654 319.917 64.3742 320.14 63.2356V63.0499C320.437 61.1439 320.029 59.671 318.915 58.6314C317.801 57.5917 316.13 57.0719 313.902 57.0719C311.526 57.0719 309.496 57.5917 307.813 58.6314C306.129 59.671 304.954 61.1067 304.285 62.9385L287.651 62.3444C288.69 58.8789 290.473 55.7847 292.997 53.0618C295.522 50.3141 298.728 48.1605 302.614 46.601C306.525 45.0168 311.043 44.2247 316.167 44.2247C319.781 44.2247 323.049 44.6579 325.97 45.5242C328.89 46.3659 331.353 47.6036 333.359 49.2373C335.388 50.8463 336.836 52.8266 337.703 55.1782C338.569 57.5298 338.755 60.2156 338.26 63.2356L331.762 102H314.682L316.018 94.054H315.573C314.236 95.9848 312.664 97.6186 310.857 98.9553C309.075 100.292 307.07 101.295 304.842 101.963C302.614 102.631 300.176 102.965 297.527 102.965ZM305.176 91.0836C307.082 91.0836 308.889 90.6875 310.597 89.8954C312.305 89.1033 313.741 88.0141 314.905 86.6279C316.093 85.2169 316.848 83.5832 317.17 81.7266L318.024 76.3056C317.504 76.5779 316.848 76.8254 316.056 77.0482C315.264 77.271 314.422 77.4814 313.531 77.6794C312.64 77.8527 311.724 78.026 310.783 78.1992C309.867 78.3478 308.988 78.4839 308.147 78.6077C306.365 78.88 304.817 79.3008 303.505 79.8701C302.194 80.4395 301.141 81.1821 300.349 82.098C299.582 82.9891 299.112 84.0535 298.938 85.2912C298.641 87.1477 299.075 88.5834 300.238 89.5984C301.401 90.5885 303.048 91.0836 305.176 91.0836Z" fill="#0D0D0D"/>
</svg>
