<svg xmlns="http://www.w3.org/2000/svg" xmlns:xlink="http://www.w3.org/1999/xlink" viewBox="0 0 898.02 905.65"><defs><style>.cls-1{fill:url(#linear-gradient);}.cls-2{fill:#fff;fill-rule:evenodd;}</style><linearGradient id="linear-gradient" y1="452.82" x2="898.02" y2="452.82" gradientUnits="userSpaceOnUse"><stop offset="0" stop-color="#53b15c"/><stop offset="0.5" stop-color="#5cb45f"/><stop offset="1" stop-color="#6db967"/></linearGradient></defs><g id="Layer_2" data-name="Layer 2"><g id="MediBook"><g id="Icon_Logo_green" data-name="Icon Logo green"><rect class="cls-1" width="898.02" height="905.65" rx="217.56"/><path class="cls-2" d="M733.17,532.74,607,658.92a17.91,17.91,0,0,1-1.59,1.81L481.27,784.88a14.07,14.07,0,0,1-3.86,2.75A99.51,99.51,0,0,1,463,793.26l-.6.18-.92.25-.09,0c-1.14.32-2.25.58-3.33.82l-1.27.25a47.78,47.78,0,0,1-5.06.7,29.38,29.38,0,0,1-14.4-2h-.05c-8.75-3.85-12-11.8-13.11-15.76a14.12,14.12,0,0,1-.52-3.88V577.15a7,7,0,0,0-5.64-6.87A168.91,168.91,0,0,1,281.84,406.07c0-.49,0-1,0-1.51a168.43,168.43,0,0,1,5.46-42.7,7,7,0,0,1,6.8-5.25h86.15a7,7,0,0,1,7,7v35.44a7,7,0,0,1-7,7H340.77a7,7,0,0,0-7,7.61,117.3,117.3,0,0,0,233.89,0,7,7,0,0,0-7-7.61H522.43a7,7,0,0,1-7-7V363.62a7,7,0,0,1,7-7h84.93a7,7,0,0,1,6.8,5.25,168.43,168.43,0,0,1,5.46,42.7c0,.51,0,1,0,1.51A168.94,168.94,0,0,1,481.68,570.61a7,7,0,0,0-5.72,7.2q.39,8.3.15,19V698.13a7.38,7.38,0,0,0,12.59,5.2l11.51-11.53,0,0a83.6,83.6,0,0,0,9.84-8.43L691.64,501.79a98.34,98.34,0,0,0,0-139.08L520.26,191.32a98.36,98.36,0,0,0-139.08,0L209.79,362.71a98.36,98.36,0,0,0,0,139.08l165,164.94a7.43,7.43,0,0,1,2.17,5.31l-.69,52.55a7.36,7.36,0,0,1-12.5,5.19l-66.49-64.67L164.85,532.74a138.55,138.55,0,0,1,0-195.93l186.2-186.2a138.55,138.55,0,0,1,195.93,0l186.19,186.2A138.55,138.55,0,0,1,733.17,532.74Z"/></g></g></g></svg>